<svg xmlns="http://www.w3.org/2000/svg" viewBox="0 0 640 400" role="img"
     aria-label="Listado de inventario de EcuaTrade-System">
  <rect width="640" height="400" fill="#f8fafc"/>
  <rect x="0" y="0" width="640" height="48" fill="#2563eb"/>
  <text x="24" y="30" font-family="Segoe UI, Arial" font-size="15" font-weight="700" fill="#ffffff">EcuaTrade-System</text>
  <text x="520" y="30" font-family="Segoe UI, Arial" font-size="12" fill="#dbeafe">Inventario</text>
  <rect x="24" y="72" width="180" height="72" rx="10" fill="#ffffff" stroke="#e2e8f0"/>
  <text x="40" y="98" font-family="Segoe UI, Arial" font-size="11" fill="#64748b">PRODUCTOS</text>
  <text x="40" y="128" font-family="Segoe UI, Arial" font-size="24" font-weight="700" fill="#0f172a">248</text>
  <rect x="230" y="72" width="180" height="72" rx="10" fill="#ffffff" stroke="#e2e8f0"/>
  <text x="246" y="98" font-family="Segoe UI, Arial" font-size="11" fill="#64748b">STOCK BAJO</text>
  <text x="246" y="128" font-family="Segoe UI, Arial" font-size="24" font-weight="700" fill="#d97706">12</text>
  <rect x="436" y="72" width="180" height="72" rx="10" fill="#ffffff" stroke="#e2e8f0"/>
  <text x="452" y="98" font-family="Segoe UI, Arial" font-size="11" fill="#64748b">CÉDULA</text>
  <text x="452" y="126" font-family="Segoe UI, Arial" font-size="15" font-weight="700" fill="#16a34a">Módulo 10 OK</text>
  <rect x="24" y="168" width="592" height="208" rx="10" fill="#ffffff" stroke="#e2e8f0"/>
  <rect x="24" y="168" width="592" height="36" rx="10" fill="#f1f5f9"/>
  <text x="44" y="192" font-family="Segoe UI, Arial" font-size="12" fill="#64748b">Producto</text>
  <text x="300" y="192" font-family="Segoe UI, Arial" font-size="12" fill="#64748b">Stock</text>
  <text x="420" y="192" font-family="Segoe UI, Arial" font-size="12" fill="#64748b">Precio</text>
  <g font-family="Segoe UI, Arial" font-size="12" fill="#0f172a">
    <text x="44" y="232">Teclado mecánico</text><text x="300" y="232">34</text><text x="420" y="232">$ 45.00</text>
    <text x="44" y="268">Monitor 24"</text><text x="300" y="268">11</text><text x="420" y="268">$ 189.90</text>
    <text x="44" y="304">Mouse inalámbrico</text><text x="300" y="304">72</text><text x="420" y="304">$ 18.50</text>
    <text x="44" y="340">Disco SSD 1TB</text><text x="300" y="340">7</text><text x="420" y="340">$ 79.00</text>
  </g>
  <line x1="24" y1="246" x2="616" y2="246" stroke="#e2e8f0"/>
  <line x1="24" y1="282" x2="616" y2="282" stroke="#e2e8f0"/>
  <line x1="24" y1="318" x2="616" y2="318" stroke="#e2e8f0"/>
</svg>
